<svg preserveAspectRatio="none" overflow="visible" style="display: block;" width="20.2393" height="28" viewBox="0 0 20.2393 28" fill="none" xmlns="http://www.w3.org/2000/svg">
<g id="Group">
<path id="Vector" d="M10.1196 0C4.52096 0 0 4.52096 0 10.1196C0 12.0717 0.623581 13.9357 1.49117 15.4675L8.08622 26.8816C8.49968 27.6272 9.33338 28 10.1196 28C10.906 28 11.6989 27.6272 12.153 26.8816L18.7481 15.4742C19.6225 13.9423 20.2393 12.1122 20.2393 10.1263C20.2393 4.52774 15.7183 0 10.1196 0ZM10.1196 13.1088C8.08622 13.1088 6.42559 11.4481 6.42559 9.41472C6.42559 7.3813 8.08622 5.72068 10.1196 5.72068C12.153 5.72068 13.8137 7.3813 13.8137 9.41472C13.8137 11.4549 12.153 13.1088 10.1196 13.1088Z" fill="#FF0000"/>
</g>
</svg>
