<svg preserveAspectRatio="none" overflow="visible" style="display: block;" width="38.2031" height="40" viewBox="0 0 38.2031 40" fill="none" xmlns="http://www.w3.org/2000/svg">
<g id="Group">
<path id="Vector" d="M33.6016 20.1562H30.5798V3.60516C30.5798 1.61727 28.9626 0 26.9746 0H3.60516C1.61727 0 0 1.61727 0 3.60516V34.7656H18.75V40H34.375V29.9219H38.2031V23.4614L33.6016 20.1562ZM15.7731 22.8499C13.9916 23.1621 12.3042 21.7316 12.3212 19.9218C12.3212 18.2848 13.653 16.953 15.2899 16.953C17.4955 16.9257 18.9698 19.3804 17.9136 21.3124L15.7731 22.8499ZM15.2899 14.6094C8.46273 14.8577 8.15719 24.5159 14.9219 25.2202V27.5691C5.04023 26.7239 5.35523 12.6459 15.29 12.2656C19.5911 12.2576 23.0854 15.8561 22.9408 20.1562H20.5967C20.7384 17.1489 18.3005 14.6015 15.2899 14.6094ZM28.4406 22.5L26.5625 24.8969L24.6844 22.5H28.4406ZM3.60516 2.34375H26.9746C27.6702 2.34375 28.236 2.90961 28.236 3.60516V5.23438H2.34375V3.60516C2.34375 2.90961 2.90961 2.34375 3.60516 2.34375ZM2.34375 32.4219V7.57812H28.2361V20.1562H25.2872C25.4252 14.5628 20.8858 9.91406 15.2899 9.92188C2.24531 10.4292 1.93297 28.9425 14.9219 29.9144V29.9219H18.75V32.4219H2.34375ZM35.8594 27.5781H32.0312V37.6562H21.0938V27.5781H17.2656V24.6636L20.2779 22.5H21.7068L26.5626 28.6969L31.4183 22.5H32.8472L35.8595 24.6636V27.5781H35.8594Z" fill="#4A4A4A"/>
</g>
</svg>
